Following the death of his father, Britt Reid, heir to his father's large company, teams up with his late dad's assistant Kato to become a masked crime fighting team...
 
http://www.imdb.com/title/tt0990407/

Subtitles: Dutch, English.

Britt Reid (Seth Rogen) is de zoon van de bekendste en meest gerespecteerde mediamagnaat van L.A. Zijn zorgeloze leventje bestaat voornamelijk uit feestvieren, totdat zijn vader op mysterieuze wijze sterft en aan Britt zijn omvangrijke imperium nalaat. Britt sluit daarop vriendschap met één van zijn vaders werknemers, de toegewijde en inventieve Kato (Jay Chou). Ze besluiten om voor het eerst in hun leven iets zinvols te doen: de misdaad bestrijden. En de beste manier om dit te doen is... door zelf crimineel te worden. Zo wordt Britt 'The Green Hornet' en samen met Kato gaat hij de straat op, om de wet te beschermen door deze te overtreden... De vindingrijke Kato bouwt het ultieme retro-wapen: The Black Beauty, een snelle en onverwoestbare auto met de meest geavanceerde wapens aan boord. Met dit rijdende fort en de slimme gadgets van Kato worden ze al snel de schrik van iedere crimineel. Met behulp van Britts nieuwe secretaresse, Lenore Case (Cameron Diaz), openen ze de jacht op de man die de onderwereld van L.A. beheerst: Benjamin Chudnofsky (Christoph Waltz). Maar Chudnofsky heeft zijn eigen plan...
 
http://www.moviemeter.nl/film/60011

Ondertitels: Engels, Nederlands.

General
Complete name                    : The Green Hornet-AC3-XviD-BRRip 2011.avi
Format                           : AVI
Format/Info                      : Audio Video Interleave
File size                        : 1.75 GiB
Duration                         : 1h 58mn
Overall bit rate                 : 2 113 Kbps
Writing application              : VirtualDubMod 1.5.4.1 (build 2178/release)
Writing library                  : VirtualDubMod build 2178/release

Video
ID                               : 0
Format                           : MPEG-4 Visual
Format profile                   : Simple@L3
Format settings, BVOP            : No
Format settings, QPel            : No
Format settings, GMC             : No warppoints
Format settings, Matrix          : Default (H.263)
Codec ID                         : XVID
Codec ID/Hint                    : XviD
Duration                         : 1h 58mn
Bit rate                         : 1 656 Kbps
Width                            : 720 pixels
Height                           : 304 pixels
Display aspect ratio             : 2.35:1
Frame rate                       : 23.976 fps
Resolution                       : 8 bits
Colorimetry                      : 4:2:0
Scan type                        : Progressive
Bits/(Pixel*Frame)               : 0.316
Stream size                      : 1.38 GiB (78%)
Writing library                  : XviD 1.1.2 (UTC 2006-11-01)

Audio
ID                               : 1
Format                           : AC-3
Format/Info                      : Audio Coding 3
Codec ID                         : 2000
Duration                         : 1h 58mn
Bit rate mode                    : Constant
Bit rate                         : 448 Kbps
Channel(s)                       : 6 channels
Channel positions                : Front: L C R, Surround: L R, LFE
Sampling rate                    : 48.0 KHz
Stream size                      : 381 MiB (21%)
Alignment                        : Split accross interleaves
Interleave, duration             : 42 ms (1.00 video frame)
Interleave, preload duration     : 500 ms

Enjoy..

TBS.